<svg xmlns="http://www.w3.org/2000/svg" width="13" height="15" viewBox="0 0 13 15">
  <defs>
    <style>
      .cls-1 {
        fill: #fff;
        fill-rule: evenodd;
      }
    </style>
  </defs>
  <path id="icon-pdf-small-white" class="cls-1" d="M1367.3,3640.64a2.012,2.012,0,0,0-1.31-.31,10.123,10.123,0,0,0-1.57.11,3.809,3.809,0,0,1-.73-0.51,5.266,5.266,0,0,1-1.32-2.06,1.6,1.6,0,0,0,.05-0.21,12.815,12.815,0,0,0,.23-2.41,0.709,0.709,0,0,0-.04-0.17l-0.02-.07a0.582,0.582,0,0,0-.52-0.4l-0.16-.01h0a0.6,0.6,0,0,0-.6.38,7.043,7.043,0,0,0,.37,3.15l-0.09.22c-0.26.63-.58,1.26-0.86,1.82l-0.04.08q-0.45.87-.81,1.5l-0.25.14c-0.02.01-.45,0.24-0.56,0.3a3.068,3.068,0,0,0-1.52,1.58,0.375,0.375,0,0,0,.14.42l0.25,0.13a0.764,0.764,0,0,0,.33.08c0.61,0,1.32-.77,2.31-2.5a22.87,22.87,0,0,1,3.55-.85,6.062,6.062,0,0,0,2.59.83,0.909,0.909,0,0,0,.3-0.04,0.464,0.464,0,0,0,.3-0.2,1.1,1.1,0,0,0,.12-0.75A0.488,0.488,0,0,0,1367.3,3640.64Zm-9.16,3.29a4.2,4.2,0,0,1,1.21-1.46c0.04-.03.14-0.13,0.23-0.22A4.4,4.4,0,0,1,1358.14,3643.93Zm3.87-9.01a1.047,1.047,0,0,1,.32.97,2.1,2.1,0,0,1-.23,1.05,5.291,5.291,0,0,1-.17-1.31A1.919,1.919,0,0,1,1362.01,3634.92Zm-1.15,6.42c0.13-.25.28-0.51,0.42-0.79a15.51,15.51,0,0,0,.75-1.64,5.256,5.256,0,0,0,1.24,1.54,1.462,1.462,0,0,0,.19.16A16.019,16.019,0,0,0,1360.86,3641.34Zm6.25-.06a0.88,0.88,0,0,1-.35.06,3.935,3.935,0,0,1-1.42-.43c0.23-.02.45-0.03,0.65-0.03a2.522,2.522,0,0,1,.82.09C1367.16,3641.06,1367.17,3641.25,1367.11,3641.28Zm1.08-6.36-2.08-2.1a3.237,3.237,0,0,0-1.98-.83h-6.98a1.172,1.172,0,0,0-1.16,1.18v12.67a1.169,1.169,0,0,0,1.16,1.17h10.7a1.169,1.169,0,0,0,1.16-1.17v-8.92A3.256,3.256,0,0,0,1368.19,3634.92Zm-0.66.66a1.27,1.27,0,0,1,.14.17h-2.38v-2.4a1.151,1.151,0,0,1,.17.14Zm0.55,10.26a0.24,0.24,0,0,1-.23.23h-10.7a0.24,0.24,0,0,1-.23-0.23v-12.67a0.242,0.242,0,0,1,.23-0.24h6.98a0.969,0.969,0,0,1,.23.03v3.73h3.7a1.953,1.953,0,0,1,.02.23v8.92Z" transform="translate(-1356 -3632)"/>
</svg>
