<svg id="Calque_1" data-name="Calque 1" xmlns="http://www.w3.org/2000/svg" width="68" height="68" viewBox="0 0 68 68"><defs><style>.cls-1{fill:#fff;}</style></defs><title>icon-product-maxwire</title><path class="cls-1" d="M22.843,38.059l-.427-.336a12.457,12.457,0,0,1-1.429,1.566l.363.4A13,13,0,0,0,22.843,38.059Z"/><path class="cls-1" d="M11,35.176c.39.672.784,1.3,1.17,1.856l.446-.31c-.378-.545-.764-1.157-1.147-1.817Z"/><path class="cls-1" d="M19.48,40.922l-.206-.5a3.424,3.424,0,0,1-1.947.226l-.1.532a3.9,3.9,0,0,0,.692.063A4.106,4.106,0,0,0,19.48,40.922Z"/><path class="cls-1" d="M25.218,34.374l-.473-.262c-.376.672-.745,1.3-1.1,1.855l.457.29C24.463,35.69,24.839,35.057,25.218,34.374Z"/><path class="cls-1" d="M27.2,30.484l-.49-.232q-.474,1-.952,1.946l.484.246C26.561,31.809,26.88,31.154,27.2,30.484Z"/><path class="cls-1" d="M2.741,12.715l.524-.137c-.2-.752-.377-1.459-.54-2.1L2.2,10.6C2.363,11.254,2.543,11.961,2.741,12.715Z"/><path class="cls-1" d="M28.509,26.3c-.3.667-.592,1.33-.888,1.982l.494.224q.444-.983.889-1.987Z"/><path class="cls-1" d="M15.172,40.264l.312-.442a9.535,9.535,0,0,1-1.552-1.415l-.4.362A9.977,9.977,0,0,0,15.172,40.264Z"/><path class="cls-1" d="M9.508,31.057l-.494.225c.308.675.623,1.334.946,1.97l.483-.246C10.125,32.378,9.813,31.726,9.508,31.057Z"/><path class="cls-1" d="M2.21,8.361c-.318-1.337-.486-2.126-.486-2.127l-.531.113s.169.794.489,2.139Z"/><path class="cls-1" d="M36.631,10.975l-.45-.306c-.38.56-.77,1.184-1.163,1.857l.469.275C35.873,12.136,36.26,11.524,36.631,10.975Z"/><path class="cls-1" d="M4.422,16.766c-.208-.716-.4-1.415-.59-2.089l-.523.144c.187.675.385,1.377.592,2.1Z"/><path class="cls-1" d="M39.415,7.777l-.339-.423A11.92,11.92,0,0,0,37.5,8.913l.413.353A11.263,11.263,0,0,1,39.415,7.777Z"/><path class="cls-1" d="M42.407,6.562v0a3.487,3.487,0,0,1,.6.054l.094-.533a3.87,3.87,0,0,0-.691-.063v0a4.382,4.382,0,0,0-1.383.229l.169.514A3.878,3.878,0,0,1,42.407,6.562Z"/><path class="cls-1" d="M8.643,29.072q-.413-.99-.805-2.012l-.506.2c.264.684.535,1.361.811,2.025Z"/><path class="cls-1" d="M5.688,20.92c-.226-.7-.441-1.391-.648-2.071l-.519.157q.314,1.027.65,2.081Z"/><path class="cls-1" d="M32.532,18.58l-.492-.227c-.3.651-.6,1.314-.9,1.981l.495.223Q32.08,19.558,32.532,18.58Z"/><path class="cls-1" d="M34.44,14.691l-.479-.251q-.495.942-.985,1.945l.488.239Q33.95,15.63,34.44,14.691Z"/><path class="cls-1" d="M46.4,8.856l.4-.362A10.054,10.054,0,0,0,45.159,7l-.313.442A9.5,9.5,0,0,1,46.4,8.856Z"/><path class="cls-1" d="M49.329,12.087c-.389-.673-.783-1.3-1.168-1.856l-.447.309c.379.546.763,1.158,1.147,1.818Z"/><path class="cls-1" d="M51.317,15.982c-.309-.676-.624-1.338-.945-1.971l-.484.247q.477.941.936,1.949Z"/><path class="cls-1" d="M53,20.007c-.262-.683-.535-1.36-.81-2.023l-.5.207c.275.659.542,1.332.8,2.013Z"/><path class="cls-1" d="M59.138,40.915s-.17-.794-.489-2.138l-.528.125c.317,1.336.487,2.125.487,2.126Z"/><path class="cls-1" d="M56.5,32.586l.525-.144c-.189-.676-.386-1.377-.594-2.095l-.52.15C56.117,31.212,56.312,31.912,56.5,32.586Z"/><path class="cls-1" d="M55.291,28.414l.519-.157q-.314-1.028-.65-2.081l-.516.166C54.868,27.04,55.083,27.734,55.291,28.414Z"/><path class="cls-1" d="M57.064,34.685c.2.752.378,1.457.542,2.1l.525-.132c-.163-.649-.343-1.357-.542-2.111Z"/><path class="cls-1" d="M54.479,24.109c-.05-.149-.1-.3-.156-.448a167.038,167.038,0,0,0,4.815-17.31l-.53-.114c-.036.167-1.793,8.26-4.587,16.561-.088-.248-.171-.5-.261-.746l-.509.182c.166.465.326.931.487,1.4C50.787,32.192,46.76,40.7,42.407,40.7v0c-4.574,0-8.42-8.6-12.131-17.068l.476-1.086-.5-.217-.275.628C26.151,14.215,22.522,6.019,17.924,6.019S9.207,14.454,6.2,23.036l-.352.119c.05.149.1.3.156.446A167.024,167.024,0,0,0,1.193,40.912l.531.114c.035-.167,1.792-8.26,4.585-16.561.088.249.172.5.261.746l.51-.183c-.167-.465-.326-.93-.487-1.4,2.95-8.562,6.977-17.07,11.331-17.07,4.282,0,8.03,8.555,11.655,16.829l.1.239-.3.687.495.218.1-.231c3.72,8.481,7.592,16.937,12.428,16.937v0c4.6,0,8.715-8.434,11.719-17.015Z"/><path class="cls-1" d="M7.355,54.4c-.318,1.121-.561,2.5-.561,2.5H6.779s-.242-1.381-.546-2.5L4.9,49.293H1.488V59.6H3.671V56.238c0-1.395-.106-4.488-.136-5.034,0,0,.3,1.41.545,2.365L5.6,59.6H7.779l1.653-5.746c.3-1.031.622-2.637.622-2.637-.046.606-.2,3.577-.2,5.048V59.6H12.04V49.293H8.765Z"/><path class="cls-1" d="M20.274,57.8v-3.35c0-1.637-1.168-2.214-3.018-2.214-2.076,0-3.365.879-3.335,2.547l2.048.015c0-.727.423-1.046,1.2-1.046.758,0,1.061.3,1.061.85v.121c0,.227-.06.273-.455.333l-1.394.227a4.832,4.832,0,0,0-1.774.546,1.787,1.787,0,0,0-.91,1.653c0,1.47,1.016,2.3,2.608,2.3a2.677,2.677,0,0,0,2.031-.667h.015c.152.531.743.652,1.381.652a5.361,5.361,0,0,0,1.03-.091V58.405h-.106C20.335,58.405,20.274,58.254,20.274,57.8Zm-2.062-.546c0,.759-.516,1.092-1.243,1.092-.637,0-1.076-.258-1.076-.85a.644.644,0,0,1,.3-.59,2.042,2.042,0,0,1,.712-.243l.5-.106a5.039,5.039,0,0,0,.8-.228Z"/><polygon class="cls-1" points="28.341 52.387 25.975 52.387 24.99 54.145 23.943 52.387 21.457 52.387 23.686 55.722 21.185 59.603 23.58 59.603 24.853 57.435 26.157 59.603 28.598 59.603 26.081 55.768 28.341 52.387"/><path class="cls-1" d="M39.5,52.3c-.469,2.167-.894,4.562-.894,4.562h-.03s-.5-2.2-1-4.018l-.97-3.548H34.39l-.879,3.442c-.561,2.183-1,4.231-1,4.231h-.015s-.531-3.048-.849-4.5l-.7-3.169h-2.4l2.5,10.31h2.668l.91-3.4c.546-2.062.895-3.714.895-3.714h.015s.439,2.137.894,3.79l.91,3.32H40l2.516-10.31h-2.38Z"/><rect class="cls-1" x="43.64" y="49.293" width="2.229" height="2.168"/><rect class="cls-1" x="43.64" y="52.387" width="2.229" height="7.217"/><path class="cls-1" d="M49.994,53.372v-.985H47.81V59.6h2.214v-3.35a3.724,3.724,0,0,1,.106-.971,1.325,1.325,0,0,1,1.44-1.016,3.148,3.148,0,0,1,.713.092V52.235a1.49,1.49,0,0,0-.258-.015A2.2,2.2,0,0,0,49.994,53.372Z"/><path class="cls-1" d="M56.65,52.205a3.791,3.791,0,0,0,.045,7.58,4.071,4.071,0,0,0,3.457-1.713l-1.531-1.031a2.025,2.025,0,0,1-1.79,1,1.6,1.6,0,0,1-1.742-1.471h5.139a4.422,4.422,0,0,0,.015-.454C60.243,53.918,59.03,52.205,56.65,52.205Zm-1.561,2.942a1.509,1.509,0,0,1,1.546-1.412,1.387,1.387,0,0,1,1.471,1.412Z"/><path class="cls-1" d="M64.266,47.5a3.137,3.137,0,1,0,3.124,3.139A3.079,3.079,0,0,0,64.266,47.5Zm0,5.763a2.624,2.624,0,1,1,2.579-2.624A2.7,2.7,0,0,1,64.266,53.265Z"/><path class="cls-1" d="M65.485,49.961a.8.8,0,0,0-.506-.8,1.7,1.7,0,0,0-.634-.092H63.178v3.1h.4V50.845h.649l.85,1.327h.5L64.7,50.826A.85.85,0,0,0,65.485,49.961Zm-1.908.528v-1.06h.694a1.33,1.33,0,0,1,.528.073.523.523,0,0,1,.008.913,1.316,1.316,0,0,1-.533.074Z"/></svg>