<svg xmlns="http://www.w3.org/2000/svg" width="21.9" height="15.844" viewBox="0 0 21.9 15.844">
  <defs>
    <style>
      .cls-1 {
        fill: #482375;
        fill-rule: evenodd;
      }
    </style>
  </defs>
  <path id="icon-youtube" class="cls-1" d="M1449.62,72.67c-0.34-3.017-1.5-3.433-3.81-3.595-3.28-.23-10.61-0.231-13.89,0-2.31.162-3.47,0.578-3.81,3.595a44.38,44.38,0,0,0,0,8.311c0.34,3.017,1.5,3.433,3.81,3.6,3.28,0.23,10.61.23,13.89,0,2.31-.162,3.47-0.578,3.81-3.6A44.38,44.38,0,0,0,1449.62,72.67Zm-12.94,7.309v-6.3l5.86,3.149Z" transform="translate(-1427.91 -68.906)"/>
</svg>
