<svg id="Calque_1" data-name="Calque 1" xmlns="http://www.w3.org/2000/svg" width="68" height="68" viewBox="0 0 68 68"><defs><style>.cls-1,.cls-3{fill:none;stroke:#fff;}.cls-2{fill:#fff;opacity:0.5;}.cls-3{stroke-linecap:round;stroke-linejoin:round;stroke-width:0.779px;}</style></defs><title>icon-product-expension-finisher</title><path class="cls-1" d="M33.945,62.207A28.718,28.718,0,1,0,5.228,33.49,28.717,28.717,0,0,0,33.945,62.207Z"/><path class="cls-2" d="M36.629,11.358l1.918.927s-.654.22-.732.492-2.275.661-2.644,1.031a18.226,18.226,0,0,1-1.691,1.555c-.428.292-1.031.564-1.186.894s-1.789,2.722-2.2,3.4a8.06,8.06,0,0,0-.486,2.371c-.136.564-.836,1.536-.8,1.77s-.311,4.568-.234,5.054a11.063,11.063,0,0,1,.739,2.45c.117,1.264.059,1.244.234,1.691a27.835,27.835,0,0,1,1.458,3.092c.194.816.155,1.4.466,1.808a8.121,8.121,0,0,1,.933,2.255,11.219,11.219,0,0,1,.234,1.613A8.811,8.811,0,0,1,33.4,44.2c.058.952.233,2.391.253,2.858s.447,1.71.447,2.507a7.225,7.225,0,0,1-.311,1.789,25.735,25.735,0,0,1,.039,5.269,11.528,11.528,0,0,1-.059,4.044,2.332,2.332,0,0,1,.39,1.536H31.343s-.5-.992-.019-3.442a19.887,19.887,0,0,1,.019-5.521,12.753,12.753,0,0,1,0-3.83,30.067,30.067,0,0,1-.641-5.171,13.974,13.974,0,0,1-.914-4.1s-.953-1.069-1.828-4.782a7.2,7.2,0,0,1-1.275-4.083s-1.155-1.283-.552-5.4a5.9,5.9,0,0,1,.7-3.985s-.272-2.294,2.2-4.841c0,0,.175-1.128,1.924-2.255A5.7,5.7,0,0,1,35,12.291Z"/><path class="cls-3" d="M36.629,11.358l1.918.927s-.654.22-.732.492-2.275.661-2.644,1.031a18.226,18.226,0,0,1-1.691,1.555c-.428.292-1.031.564-1.186.894s-1.789,2.722-2.2,3.4a8.06,8.06,0,0,0-.486,2.371c-.136.564-.836,1.536-.8,1.77s-.311,4.568-.234,5.054a11.063,11.063,0,0,1,.739,2.45c.117,1.264.059,1.244.234,1.691a27.835,27.835,0,0,1,1.458,3.092c.194.816.155,1.4.466,1.808a8.121,8.121,0,0,1,.933,2.255,11.219,11.219,0,0,1,.234,1.613A8.811,8.811,0,0,1,33.4,44.2c.058.952.233,2.391.253,2.858s.447,1.71.447,2.507a7.225,7.225,0,0,1-.311,1.789,25.735,25.735,0,0,1,.039,5.269,11.528,11.528,0,0,1-.059,4.044,2.332,2.332,0,0,1,.39,1.536H31.343s-.5-.992-.019-3.442a19.887,19.887,0,0,1,.019-5.521,12.753,12.753,0,0,1,0-3.83,30.067,30.067,0,0,1-.641-5.171,13.974,13.974,0,0,1-.914-4.1s-.953-1.069-1.828-4.782a7.2,7.2,0,0,1-1.275-4.083s-1.155-1.283-.552-5.4a5.9,5.9,0,0,1,.7-3.985s-.272-2.294,2.2-4.841c0,0,.175-1.128,1.924-2.255A5.7,5.7,0,0,1,35,12.291Z"/><path class="cls-3" d="M29.03,17.035a7.522,7.522,0,0,1,3.508-1.059"/><path class="cls-3" d="M30.954,14.78a12.322,12.322,0,0,1,4.464-1.125"/><path class="cls-3" d="M35,12.291a17.517,17.517,0,0,1,3.549-.006"/><path class="cls-3" d="M26.833,21.876a10.824,10.824,0,0,1,3.356-2.366"/><path class="cls-3" d="M26.133,25.861s2.171-.689,2.73-2.259"/><path class="cls-3" d="M29.788,40.131a4.774,4.774,0,0,0,1.492-2.646"/><path class="cls-3" d="M27.96,35.349s1.644-1.191,1.5-2.617"/><path class="cls-3" d="M26.689,31.439a6.4,6.4,0,0,0,1.891-2.584"/><path class="cls-3" d="M30.7,44.234s2.015-1.757,1.942-2.47"/><path class="cls-3" d="M31.343,49.405s2.253-1.089,2.312-2.352"/><path class="cls-3" d="M31.343,53.235a5.268,5.268,0,0,0,2.448-1.886"/><path class="cls-3" d="M31.324,58.756a10.833,10.833,0,0,0,2.524-2.323"/><path class="cls-3" d="M33.771,60.662A19.816,19.816,0,0,1,31.343,62.2"/></svg>