<svg id="Calque_1" data-name="Calque 1" xmlns="http://www.w3.org/2000/svg" width="68" height="68" viewBox="0 0 68 68"><defs><style>.cls-1{opacity:0.5;}.cls-2{fill:#fff;}.cls-3,.cls-4{fill:none;stroke:#fff;}.cls-4{stroke-linecap:round;stroke-linejoin:round;stroke-width:0.779px;}</style></defs><title>icon-product-cleaning</title><g class="cls-1"><path class="cls-2" d="M41.525,5.857S26.531,24.126,20.178,40.712a2.026,2.026,0,0,0,.512,2.2c2.256,2.105,6.057,6.576,7.874,6.89,1.431.248,6.77-9.165,8.092-12.715s8.263-16.88,17.91-23.309A29.1,29.1,0,0,0,41.525,5.857Z"/><path class="cls-2" d="M50.717,10.468S39.9,9.736,33.352,16.892"/></g><path class="cls-3" d="M33.688,62.207A28.718,28.718,0,1,0,4.971,33.49,28.717,28.717,0,0,0,33.688,62.207Z"/><path class="cls-4" d="M41.525,5.857S26.531,24.126,20.178,40.712a2.026,2.026,0,0,0,.512,2.2c2.256,2.105,6.057,6.576,7.874,6.89,1.431.248,6.77-9.165,8.092-12.715s8.263-16.88,17.91-23.309A29.1,29.1,0,0,0,41.525,5.857Z"/><path class="cls-4" d="M50.717,10.468S39.9,9.736,33.352,16.892"/><path class="cls-4" d="M20.045,41.514h0c6.745-7.06,15.786-4.152,18.419-8.3"/></svg>