<svg id="Calque_1" data-name="Calque 1" xmlns="http://www.w3.org/2000/svg" width="68" height="68" viewBox="0 0 68 68"><defs><style>.cls-1{fill:#fff;opacity:0.5;}.cls-2,.cls-3{fill:none;stroke:#fff;}.cls-3{stroke-linecap:round;stroke-linejoin:round;stroke-width:0.779px;}</style></defs><title>icon-product-expension-shaper</title><path class="cls-1" d="M32.325,4.772A7.9,7.9,0,0,1,31.019,6.7a2.737,2.737,0,0,0-.654,2.454,3.867,3.867,0,0,1-.063,1.854c-.046.272-1.954,2.344-1.518,3.817s1.145,2.29.981,2.835-1.438,2.726-1.046,3.708a6.4,6.4,0,0,0,2.409,3.271s-.818,3.163.055,3.872,1.908.872,2.4,1.581-.382,2.313.382,3.419a16.768,16.768,0,0,0,2.29,2.579s-.274,2.726.544,4.035,1.419,2.017,1.31,2.726S36.634,45.3,36.8,46.177s.655,2.617.383,2.89-1.745,1.69-1.854,2.617a6.983,6.983,0,0,1-.4,2.508c-.36.545-2,1.527-2.6,3.272a12.955,12.955,0,0,0-.706,3.653,3.727,3.727,0,0,1-.327,1.09l3.38-.109a16.545,16.545,0,0,0,.251-3.326,12.112,12.112,0,0,0,2.53-2.78c.491-1.091-.109-3,0-3.218s2.727-1.308,2.727-2.181.218-3.217,0-3.38,1.145-3.381,1.09-3.981-.818-3.053-1.472-3.544a13.538,13.538,0,0,0-.273-4.144c-.49-1.363-2.562-2.617-2.562-2.617s.218-2.726-.437-3.817-1.8-1.145-1.854-1.854,0-2.944-.381-3.707S32.437,21.8,32.382,21.04s.818-2.017.873-3.162-1.205-2.508-.875-3.272,1.693-1.69,1.747-3-.545-2.018-.054-2.945,2.181-1.892,1.908-3.891Z"/><path class="cls-2" d="M33.679,62.207A28.718,28.718,0,1,0,4.962,33.49,28.717,28.717,0,0,0,33.679,62.207Z"/><path class="cls-3" d="M34.65,62.1a16.479,16.479,0,0,0,.25-3.326,12.132,12.132,0,0,0,2.531-2.78c.49-1.091-.11-3,0-3.218s2.726-1.308,2.726-2.181.218-3.217,0-3.38,1.145-3.381,1.09-3.981-.818-3.053-1.472-3.544a13.56,13.56,0,0,0-.272-4.144c-.491-1.363-2.563-2.617-2.563-2.617s.218-2.726-.436-3.817-1.8-1.145-1.854-1.854,0-2.944-.382-3.707S32.414,21.8,32.36,21.04s.818-2.017.872-3.162-1.2-2.508-.875-3.272,1.693-1.69,1.747-3-.545-2.018-.054-2.945,2.181-1.892,1.908-3.891"/><path class="cls-3" d="M32.3,4.772A7.914,7.914,0,0,1,31,6.7a2.735,2.735,0,0,0-.655,2.454,3.853,3.853,0,0,1-.063,1.854c-.046.272-1.954,2.344-1.518,3.817s1.145,2.29.981,2.835S28.3,20.386,28.7,21.368a6.4,6.4,0,0,0,2.41,3.271s-.818,3.163.054,3.872,1.908.872,2.4,1.581-.381,2.313.382,3.419a16.768,16.768,0,0,0,2.29,2.579s-.274,2.726.545,4.035,1.418,2.017,1.309,2.726-1.474,2.453-1.309,3.326.655,2.617.382,2.89-1.745,1.69-1.854,2.617a6.983,6.983,0,0,1-.4,2.508c-.359.545-2,1.527-2.6,3.272a12.955,12.955,0,0,0-.706,3.653,3.727,3.727,0,0,1-.327,1.09"/><path class="cls-3" d="M36.94,32.927a12.283,12.283,0,0,0-.709,3.163"/><path class="cls-3" d="M36.231,28.739s-2.545.762-2.546,1.658"/><path class="cls-3" d="M34.08,23.256s-2.375.02-2.974,1.383"/><path class="cls-3" d="M32.361,15.272a4.491,4.491,0,0,0-2.619,2.388"/><path class="cls-3" d="M34.018,10.548s-2.686-1.79-3.644,0"/><path class="cls-3" d="M39.775,39.688s-3-.709-3,.437"/><path class="cls-3" d="M41.206,43.576S38.843,42.485,38,43.131"/><path class="cls-3" d="M40.178,49.933s-1.76-1.466-2.744-1.084"/><path class="cls-3" d="M37.434,54.737s-1.6-1.459-2.534-.545"/><path class="cls-3" d="M34.9,58.772s-1.8-1.822-2.8-.665"/></svg>