<svg xmlns="http://www.w3.org/2000/svg" width="13.53" height="13.281" viewBox="0 0 13.53 13.281">
  <defs>
    <style>
      .cls-1 {
        fill: #482375;
        fill-rule: evenodd;
      }
    </style>
  </defs>
  <path id="icon-linkedin" class="cls-1" d="M1502.77,72.131a1.655,1.655,0,1,1-1.66-1.636A1.646,1.646,0,0,1,1502.77,72.131Zm-0.25,2.8h-2.79V83.8h2.79V74.929Zm4.47,0h-2.68V83.8h2.68V79.141c0-1.247.59-1.989,1.71-1.989,1.02,0,1.52.713,1.52,1.989V83.8H1513V78.181c0-2.375-1.37-3.523-3.29-3.523a3.161,3.161,0,0,0-2.72,1.464V74.929h0Z" transform="translate(-1499.47 -70.5)"/>
</svg>
