<svg id="Calque_1" data-name="Calque 1" xmlns="http://www.w3.org/2000/svg" width="68" height="68" viewBox="0 0 68 68"><defs><style>.cls-1,.cls-3{fill:none;stroke:#fff;}.cls-2,.cls-4{fill:#fff;}.cls-2{opacity:0.5;}.cls-3{stroke-miterlimit:10;}</style></defs><title>icon-product-debris</title><path class="cls-1" d="M34.151,62.207A28.718,28.718,0,1,0,5.434,33.49,28.717,28.717,0,0,0,34.151,62.207Z"/><polygon class="cls-2" points="34.152 4.892 18.885 32.526 49.419 32.526 34.152 4.892"/><path class="cls-1" d="M34.124,4.942,18.885,32.526H49.419L34.179,4.942A.031.031,0,0,0,34.124,4.942Z"/><path class="cls-3" d="M33.106,36.976s1.584,5.544-3.255,8.918"/><polygon class="cls-4" points="29.414 44.076 27.634 47.078 31.124 47.119 29.414 44.076"/><path class="cls-3" d="M23.894,54.112S18.142,53.7,16.627,48"/><polygon class="cls-4" points="18.485 48.214 16.273 45.515 15.041 48.78 18.485 48.214"/><path class="cls-3" d="M40.861,49.361s.354-5.756,6.04-7.325"/><polygon class="cls-4" points="46.708 43.897 49.386 41.659 46.11 40.458 46.708 43.897"/><path class="cls-3" d="M55.743,26.561s-5.457-1.86-5.47-7.759"/><polygon class="cls-4" points="52.016 19.479 50.565 16.306 48.542 19.149 52.016 19.479"/><path class="cls-3" d="M17.368,18.176s1.509,5.565-3.375,8.873"/><polygon class="cls-4" points="13.58 25.225 11.76 28.203 15.249 28.291 13.58 25.225"/><path class="cls-3" d="M32.547,49.813s5.685.965,6.64,6.785"/><polygon class="cls-4" points="37.358 56.208 39.297 59.109 40.841 55.979 37.358 56.208"/><path class="cls-3" d="M12.087,43.057s.67-5.727,6.434-6.981"/><polygon class="cls-4" points="18.225 37.923 21.023 35.836 17.817 34.456 18.225 37.923"/><path class="cls-3" d="M56.32,43.681s-4.152-4-1.66-9.347"/><polygon class="cls-4" points="55.951 35.687 55.984 32.197 52.945 33.913 55.951 35.687"/><circle class="cls-4" cx="42.46" cy="35.015" r="0.821"/><circle class="cls-4" cx="47.085" cy="37.939" r="0.821"/><circle class="cls-4" cx="37.292" cy="44.284" r="0.821"/><circle class="cls-4" cx="29.352" cy="35.508" r="0.821"/><circle class="cls-4" cx="18.609" cy="42.027" r="0.821"/><circle class="cls-4" cx="28.455" cy="41.38" r="0.821"/><circle class="cls-4" cx="38.502" cy="37.939" r="0.821"/><circle class="cls-4" cx="15.304" cy="32.225" r="0.821"/><circle class="cls-4" cx="9.496" cy="35.508" r="0.821"/><circle class="cls-4" cx="11.453" cy="45.962" r="0.821"/><circle class="cls-4" cx="23.322" cy="48.54" r="0.821"/><circle class="cls-4" cx="8.675" cy="29.54" r="0.821"/><circle class="cls-4" cx="28.852" cy="55.832" r="0.821"/><circle class="cls-4" cx="30.494" cy="50.087" r="0.821"/><circle class="cls-4" cx="35.114" cy="59.273" r="0.821"/><circle class="cls-4" cx="21.725" cy="56.574" r="0.821"/><circle class="cls-4" cx="46.817" cy="55.753" r="0.821"/><circle class="cls-4" cx="42.239" cy="54.461" r="0.821"/><circle class="cls-4" cx="47.085" cy="50.234" r="0.821"/><circle class="cls-4" cx="48.873" cy="45.962" r="0.821"/><circle class="cls-4" cx="54.271" cy="49.414" r="0.821"/><circle class="cls-4" cx="57.502" cy="40.559" r="0.821"/><circle class="cls-4" cx="58.828" cy="33.046" r="0.821"/><circle class="cls-4" cx="58.323" cy="24.017" r="0.821"/><circle class="cls-4" cx="47.906" cy="24.017" r="0.821"/><circle class="cls-4" cx="43.06" cy="14.027" r="0.821"/><circle class="cls-4" cx="47.906" cy="12.432" r="0.821"/><circle class="cls-4" cx="38.934" cy="8.206" r="0.821"/><circle class="cls-4" cx="25.044" cy="9.027" r="0.821"/><circle class="cls-4" cx="20.585" cy="14.027" r="0.821"/><circle class="cls-4" cx="11.76" cy="21.433" r="0.821"/><circle class="cls-4" cx="21.406" cy="19.792" r="0.821"/><circle class="cls-4" cx="23.894" cy="38.76" r="0.821"/></svg>