<svg id="Calque_1" data-name="Calque 1" xmlns="http://www.w3.org/2000/svg" width="68" height="68" viewBox="0 0 68 68"><defs><style>.cls-1{opacity:0.5;}.cls-2{fill:#fff;}.cls-3,.cls-4{fill:none;stroke:#fff;}.cls-4{stroke-linecap:round;stroke-linejoin:round;stroke-width:0.779px;}</style></defs><title>icon-product-shaping</title><g class="cls-1"><path class="cls-2" d="M26.881,30.945a44.239,44.239,0,0,0-9.138,18.22s0,1.734,2.23.661a76.142,76.142,0,0,0,6.771-4.6h0c3.047-2.2,6.337-4.633,8.329-6.01.1-.071.189-.127.249-.169.143-.1.295-.2.421-.287,3.468-2.312,6.771-9.166,8.092-12.716s5.2-9.991,7.926-11.89l1.866-1.3L48.2,8.61,42.412,6.132S33.266,13.441,26.881,30.945Z"/><path class="cls-2" d="M53.627,12.857h0Z"/></g><path class="cls-3" d="M33.655,62.207A28.718,28.718,0,1,0,4.938,33.49,28.717,28.717,0,0,0,33.655,62.207Z"/><path class="cls-4" d="M42.412,6.132s-9.146,7.309-15.531,24.813a44.239,44.239,0,0,0-9.138,18.22s0,1.734,2.23.661,12.3-8.753,15.77-11.064,6.771-9.166,8.092-12.716,5.2-9.991,7.926-11.89c2.627-1.83,1.651-1.147,1.867-1.3"/><path class="cls-4" d="M50.42,15.348s-16.989,8.441-23.539,15.6"/><path class="cls-4" d="M28.426,29.4s-5.364,10.409-2.591,12.44,9.6-2.878,9.6-2.878"/><path class="cls-4" d="M21.142,39.82s2.482.552,3.9-.522"/><path class="cls-4" d="M27.734,42.337a11.121,11.121,0,0,0-.99,2.891"/></svg>