<svg xmlns="http://www.w3.org/2000/svg" width="60" height="60" viewBox="0 0 60 60">
  <defs>
    <style>
      .cls-1 {
        fill: #fff;
        fill-rule: evenodd;
      }
    </style>
  </defs>
  <path id="icon-play-white" class="cls-1" d="M852.025,571.947l-16.543-11.314a1.271,1.271,0,0,0-2,1.053v22.629a1.269,1.269,0,0,0,2,1.052l16.543-11.314a1.273,1.273,0,0,0,0-2.106h0Zm-15.98,9.955V564.1l12.992,8.9ZM840,543a30,30,0,1,0,30,30A30.033,30.033,0,0,0,840,543Zm0,57.441A27.441,27.441,0,1,1,867.441,573,27.467,27.467,0,0,1,840,600.441Z" transform="translate(-810 -543)"/>
</svg>
