<svg id="Calque_1" data-name="Calque 1" xmlns="http://www.w3.org/2000/svg" width="238.751" height="67.567" viewBox="0 0 238.751 67.567"><defs><style>.cls-1{fill:#6a4595;}.cls-2{fill:#fff;}</style></defs><title>logo-xpendo-solutions</title><path class="cls-1" d="M228.791-.132a6.072,6.072,0,0,0-6.17,6.189,6.166,6.166,0,1,0,12.331,0A6.067,6.067,0,0,0,228.791-.132Zm0,11.365a5.329,5.329,0,0,1-5.09-5.176,5.089,5.089,0,1,1,10.176,0A5.325,5.325,0,0,1,228.791,11.233Z"/><path class="cls-1" d="M231.194,4.72a1.584,1.584,0,0,0-1-1.574,3.457,3.457,0,0,0-1.253-.181h-2.3V9.079h.787V6.462h1.281l1.677,2.617h.992l-1.728-2.654A1.677,1.677,0,0,0,231.194,4.72Zm-3.763,1.039V3.668h1.37a2.614,2.614,0,0,1,1.038.144.931.931,0,0,1,.54.9.917.917,0,0,1-.521.9,2.53,2.53,0,0,1-1.053.149Z"/><polygon class="cls-1" points="47.174 0.356 36.696 0.356 24.69 17.892 12.539 0.356 1.551 0.356 19.087 24.659 0.824 49.836 10.792 49.836 24.181 30.844 37.061 49.836 47.684 49.836 29.565 24.005 47.174 0.356"/><path class="cls-1" d="M84.575,4.067C80.572.648,74.823.356,68.712.356H52.194v49.48h8.731V30.553h7.787c6.111,0,11.86-.291,15.863-3.711a15.061,15.061,0,0,0,4.875-11.5A14.7,14.7,0,0,0,84.575,4.067ZM76.861,21.749c-1.455.654-3.42.945-6.913.945H60.925V8.069h9.023c3.493,0,5.458.291,6.913.946a6.884,6.884,0,0,1,3.566,6.33A7,7,0,0,1,76.861,21.749Z"/><polygon class="cls-1" points="110.979 17.333 125.268 17.333 125.268 12.6 110.979 12.6 110.979 5.168 126.728 5.168 126.728 0.435 105.671 0.435 105.671 30.516 127.834 30.516 127.834 25.783 110.979 25.783 110.979 17.333"/><path class="cls-1" d="M151.372,10.521c0,4.247.089,9.821.089,10.794-.4-.663-1.637-2.654-2.3-3.672L137.7.435h-4.953V30.516h5.263V20.474c0-5.043-.044-9.731-.088-11.147.044,0,.973,1.636,1.9,3.1l11.855,18.093h4.956V.435h-5.265Z"/><path class="cls-1" d="M183.228,2.559C180.176.435,177.123.435,172.257.435h-8.405V30.516h8.273c5.617,0,9.113,0,12.342-3.141,2.787-2.654,4.379-6.945,4.379-11.988C188.846,9.5,186.5,4.948,183.228,2.559Zm-2.742,21.322c-1.859,1.769-4.424,1.814-7.787,1.814h-3.494V5.345h2.92c3.937,0,6.193.222,7.962,1.769,2.035,1.771,3.1,4.779,3.1,8.45C183.184,19.28,181.9,22.421,180.486,23.881Z"/><path class="cls-1" d="M205.833-.095c-8.759,0-14.244,6.369-14.244,15.571,0,9.157,5.131,15.571,14.244,15.571,9.157,0,14.245-6.414,14.245-15.571C220.078,6.274,214.592-.095,205.833-.095Zm0,26.32c-5.353,0-8.45-4.2-8.45-10.749s3.186-10.838,8.45-10.838,8.45,4.291,8.45,10.838S211.186,26.225,205.833,26.225Z"/><path class="cls-2" d="M182.837,46.057c1.428,0,2.563-.624,2.563-1.44s-1.135-1.465-2.563-1.465-2.522.649-2.522,1.465S181.408,46.057,182.837,46.057Z"/><path class="cls-2" d="M236.288,54.1l-.294.192A27.791,27.791,0,0,1,230.741,57c1.387-2.376,1.093-6.025,3.782-9.217l-3.278-1.008c-1.807,1.416-5.757,4.68-9.707,7.321l-.294.192c-3.151,2.088-6.22,3.744-8.152,3.744-.967,0-1.513-.384-.5-1.368l6.3-6.313c1.892-1.9.084-3.264-2.352-3.264a11.766,11.766,0,0,0-6.052,1.872l1.639-1.632h-4.37l-6.85,6.769h0l-.294.192a13.133,13.133,0,0,1-6.6,1.848l4.119-4.057c2.647-2.616.21-5.088-3.909-5.088a10.971,10.971,0,0,0-8.488,3.264l-2.143,2.136L181.8,54.141l-.227.149c-3.152,2.088-6.22,3.744-8.152,3.744-.967,0-1.513-.384-.5-1.368l9.371-9.337h-4.37L171.076,54.1l-.006,0-.294.192c-3.152,2.088-6.22,3.744-8.152,3.744-.967,0-1.513-.384-.5-1.368l9.371-9.337h3.572l1.261-1.2h-3.614l4.118-4.08h-4.37l-4.118,4.08h-3.951l-1.26,1.2h3.992L160.276,54.1l-.006,0-.294.192c-3.151,2.088-6.219,3.744-8.152,3.744-.967,0-1.513-.384-.5-1.368l9.329-9.337h-4.371l-7.773,7.753c-3.321,1.727-5.884,2.687-6.724,2.472-1.093-.264,0-1.2.546-1.728l8.53-8.5h-4.37L139.639,54.1h0l-.294.192c-3.152,2.088-6.219,3.744-8.152,3.744-.967,0-1.513-.384-.5-1.368L145.4,42.049h-4.37L128.845,54.1l-.006,0-.294.192a13.135,13.135,0,0,1-6.6,1.848l4.118-4.057c2.648-2.616.21-5.088-3.908-5.088a10.969,10.969,0,0,0-8.488,3.264l-2.144,2.136-1.786,1.746-.23.151A27.791,27.791,0,0,1,104.256,57c1.386-2.376,1.092-6.025,3.782-9.217l-3.277-1.008c-1.808,1.416-11.893,9.049-15.843,11.689a6.321,6.321,0,0,0,1.638.864c2.48-1.632,10.8-7.753,12.355-8.929-1.723,2.592-.8,7.249-4.958,7.249a2.434,2.434,0,0,1-2.06-.912l-2.731.816s.8,2.016,4.791,2.016c.42,0,.8-.024,1.218-.048.043,0,.085-.024.127-.024a24.154,24.154,0,0,0,8.8-2.61c-.193,3.28,7.679,3.954,12.464.5h.967a19.936,19.936,0,0,0,4.85-.712c-.973,1.576.406,2.9,3.512,2.9a16.047,16.047,0,0,0,6.856-1.956c-.263,1.2.835,1.956,2.85,1.956,2.4,0,5.085-1.248,7.186-2.4-.42,1.344.967,2.4,3.74,2.4a16.221,16.221,0,0,0,6.988-2.018c-.069,1.159,1.307,2.018,3.812,2.018a16.229,16.229,0,0,0,6.988-2.018c-.069,1.158,1.307,2.018,3.812,2.018a17.685,17.685,0,0,0,8.044-2.579c-.023,3.189,7.727,3.814,12.462.4h.967a19.787,19.787,0,0,0,4.645-.653l-2.629,2.6h4.412l6.682-6.648c6.682-4.777,9.666-4.153,7.774-2.3l-5.673,5.64c-1.849,1.849-.546,3.553,2.984,3.553,3.614,0,7.774-2.208,11.388-4.608h0c2.479-1.632,4.665-3.384,6.219-4.56-1.722,2.592-.8,7.249-4.959,7.249a2.432,2.432,0,0,1-2.058-.912l-2.732.816s.8,2.016,4.79,2.016c.42,0,.8-.024,1.219-.048.042,0,.084-.024.126-.024a26.543,26.543,0,0,0,12.145-4.536A2.714,2.714,0,0,0,236.288,54.1Zm-116.778.168h-.21c-1.429,0-2.564.671-2.564,1.488a1.192,1.192,0,0,0,.42.84l-.042.048c-2.059,2.016-7.06,1.632-4.454-.96l3.32-3.289,2.1-2.04c3.067-2.976,7.27-1.8,4.623.792Zm72.066,0h-.21c-1.429,0-2.564.671-2.564,1.488a1.192,1.192,0,0,0,.42.84l-.042.048c-2.058,2.016-7.059,1.632-4.454-.96l3.321-3.289,2.1-2.04c3.068-2.976,7.271-1.8,4.623.792Z"/></svg>