<svg id="Calque_1" data-name="Calque 1" xmlns="http://www.w3.org/2000/svg" width="235" height="66.21" viewBox="0 0 235 66.21"><defs><style>.cls-1{fill:#6a4595;}.cls-2{fill:#fff;}</style></defs><title>logo-xpendo-shaper</title><path class="cls-1" d="M228.4,0a6.072,6.072,0,0,0-6.17,6.189,6.166,6.166,0,1,0,12.331,0A6.067,6.067,0,0,0,228.4,0Zm0,11.365a5.328,5.328,0,0,1-5.09-5.176,5.089,5.089,0,1,1,10.176,0A5.324,5.324,0,0,1,228.4,11.365Z"/><path class="cls-1" d="M230.806,4.852a1.585,1.585,0,0,0-1-1.574,3.446,3.446,0,0,0-1.252-.181h-2.3V9.211h.787V6.594h1.281L230,9.211h.992l-1.727-2.654A1.677,1.677,0,0,0,230.806,4.852Zm-3.763,1.039V3.8h1.369a2.62,2.62,0,0,1,1.039.144.931.931,0,0,1,.54.9.918.918,0,0,1-.522.9,2.524,2.524,0,0,1-1.052.149Z"/><polygon class="cls-1" points="46.786 0.488 36.308 0.488 24.302 18.024 12.151 0.488 1.163 0.488 18.699 24.791 0.436 49.968 10.404 49.968 23.793 30.976 36.672 49.968 47.296 49.968 29.177 24.137 46.786 0.488"/><path class="cls-1" d="M84.186,4.2C80.184.78,74.435.488,68.323.488H51.806v49.48h8.731V30.685h7.786c6.112,0,11.861-.291,15.863-3.711a15.058,15.058,0,0,0,4.875-11.5A14.694,14.694,0,0,0,84.186,4.2ZM76.473,21.881c-1.455.655-3.42.945-6.913.945H60.537V8.2H69.56c3.493,0,5.458.291,6.913.947a6.881,6.881,0,0,1,3.565,6.329A7,7,0,0,1,76.473,21.881Z"/><path class="cls-2" d="M203.418,54.419c-3.151,2.088-6.22,3.744-8.152,3.744-.967,0-1.513-.383-.5-1.367l4.37-4.369c1.513-1.512.8-2.4-.631-3.385l-2.436-1.68c-.631-.455-.631-.959.252-1.439l-2.27-1.416c-2.479,1.271-2.689,2.687-1.135,3.84l.378.287c-1.932,1.56-4.538,3.674-7.395,5.594l-.294.191c-3.152,2.088-7.186,3.744-10.254,3.744-2.69,0-4.286-.959-2.269-2.976l.42-.432c2.816.672,8.111.359,11.388-2.881l.631-.623c2.353-2.3.084-4.033-3.488-4.033-3.53,0-6.346,1.056-8.195,2.881l-4.235,4.15-.261.17a23.292,23.292,0,0,1-7.984,3.5c.714-.649,1.261-1.344,1.806-1.871l4.833-4.729c4.077-3.961-2.521-5.281-6.975-3l.882-.865h-4.37l-6.836,6.774-.014,0-.294.191c-3.151,2.088-6.219,3.744-8.152,3.744-.967,0-1.513-.383-.5-1.367l7.059-7.057H146.31c.168-1.056-1.723-2.521-4.58-2.521a11.719,11.719,0,0,0-7.481,2.881l-4.191,4.132-.011,0-.294.191c-3.151,2.088-6.219,3.744-8.152,3.744-.967,0-1.513-.383-.5-1.367l6.3-6.313c1.891-1.9.084-3.265-2.353-3.265a11.963,11.963,0,0,0-6.094,1.9l6.976-6.935h-4.37L109.372,54.255l-.252.164a27.736,27.736,0,0,1-5.253,2.713c1.387-2.377,1.093-6.026,3.783-9.217l-3.278-1.008C102.565,48.323,92.48,55.956,88.53,58.6a6.288,6.288,0,0,0,1.638.865c2.48-1.633,10.8-7.754,12.355-8.93-1.723,2.592-.8,7.25-4.958,7.25a2.434,2.434,0,0,1-2.06-.912l-2.731.815s.8,2.017,4.791,2.017c.42,0,.8-.025,1.217-.049.043,0,.085-.023.127-.023a22.63,22.63,0,0,0,6.721-1.665l-1.511,1.5h4.413l6.639-6.6c6.724-4.824,9.707-4.2,7.817-2.351l-5.673,5.64C115.466,58,116.768,59.7,120.3,59.7a16.209,16.209,0,0,0,6.988-2.019c-.069,1.159,1.307,2.019,3.812,2.019a15.255,15.255,0,0,0,6.051-1.633c.21.961,1.554,1.633,3.782,1.633a14.487,14.487,0,0,0,5.64-1.383l-6.481,6.422H144.5l13.07-12.984c4.875-3.793,7.942-2.4,6.807-1.272l-6.6,6.528a2.309,2.309,0,0,1-3.152,0l-2.479.672s.8,2.017,4.791,2.017h.252a23.19,23.19,0,0,0,10.924-2.726c.172,1.578,2.388,2.726,5.926,2.726,4.959,0,9.876-2.209,13.489-4.609,2.1-1.393,3.741-2.641,7.229-5.352l.588.408c.546.409.757.913.252,1.416l-4.622,4.584c-1.85,1.848-.547,3.553,2.983,3.553,3.614,0,7.775-2.209,11.388-4.609a3.741,3.741,0,0,0-1.639-.863Zm-25.844-3.695c2.522-2.473,6.976-2.065,4.371.527l-.63.623a7.286,7.286,0,0,1-6.556,1.656ZM139.46,54.659c-2.647,2.377-5.253,3.5-7.059,3.5-.967,0-1.513-.383-.505-1.367l6.094-6.072c2.353-2.33,7.017-1.729,4.875.527Z"/><polygon class="cls-1" points="110.591 17.465 124.88 17.465 124.88 12.732 110.591 12.732 110.591 5.301 126.339 5.301 126.339 0.567 105.283 0.567 105.283 30.648 127.446 30.648 127.446 25.915 110.591 25.915 110.591 17.465"/><path class="cls-1" d="M150.984,10.653c0,4.247.089,9.821.089,10.794-.4-.663-1.637-2.654-2.3-3.672L137.314.567H132.36V30.648h5.264V20.606c0-5.043-.044-9.731-.088-11.147.044,0,.973,1.637,1.9,3.1l11.855,18.093h4.956V.567h-5.265Z"/><path class="cls-1" d="M182.84,2.691C179.788.567,176.735.567,171.869.567h-8.405V30.648h8.273c5.617,0,9.113,0,12.341-3.141,2.788-2.654,4.38-6.945,4.38-11.988C188.458,9.636,186.113,5.08,182.84,2.691ZM180.1,24.013c-1.858,1.769-4.423,1.814-7.786,1.814h-3.494V5.477h2.92c3.937,0,6.193.222,7.962,1.769,2.035,1.771,3.1,4.779,3.1,8.45C182.8,19.412,181.513,22.553,180.1,24.013Z"/><path class="cls-1" d="M205.445.037c-8.76,0-14.244,6.369-14.244,15.571,0,9.157,5.131,15.572,14.244,15.572,9.156,0,14.244-6.415,14.244-15.572C219.689,6.406,214.2.037,205.445.037Zm0,26.32c-5.353,0-8.45-4.2-8.45-10.749s3.186-10.838,8.45-10.838,8.449,4.291,8.449,10.838S210.8,26.357,205.445,26.357Z"/></svg>