<svg id="Calque_1" data-name="Calque 1" xmlns="http://www.w3.org/2000/svg" width="60" height="83.833" viewBox="0 0 60 83.833"><defs><style>.cls-1{fill:#636569;}.cls-2{fill:#4b246c;}</style></defs><title>logo-fkg-footer</title><path class="cls-1" d="M4.323,78.984a2.289,2.289,0,0,0-1.73-.786c-.694,0-1.231.3-1.231.852,0,.59.471.747,1.4.944l.721.144c1,.209,1.8.629,1.8,1.717,0,1.271-1.114,1.978-2.608,1.978A3.448,3.448,0,0,1,0,82.6l.709-.734a2.559,2.559,0,0,0,2.031,1.062c.851,0,1.428-.353,1.428-.983,0-.59-.459-.721-1.088-.839l-.852-.17C1.151,80.727.261,80.3.261,79.194c0-1.336,1.232-1.9,2.385-1.9a3.151,3.151,0,0,1,2.385.983Z"/><path class="cls-1" d="M11.727,80.857c.17.539.314,1.037.392,1.338h.014c.079-.289.236-.865.406-1.376l1.088-3.381h1.127l-2.162,6.238h-.983l-1.087-3.552c-.171-.523-.3-1.009-.342-1.166h-.013c-.039.157-.17.643-.341,1.18L8.7,83.676H7.678L5.542,77.438H6.694l1.141,3.419c.171.5.328,1.049.406,1.338h.013c.078-.3.223-.826.393-1.35l1.115-3.407h.943Z"/><path class="cls-1" d="M16.928,76.153H15.841V74.764h1.087Zm0,7.523H15.841V77.438h1.087Z"/><path class="cls-1" d="M22.484,78.984a2.289,2.289,0,0,0-1.73-.786c-.694,0-1.231.3-1.231.852,0,.59.471.747,1.4.944l.72.144c1,.209,1.8.629,1.8,1.717,0,1.271-1.114,1.978-2.608,1.978A3.446,3.446,0,0,1,18.159,82.6l.708-.734A2.56,2.56,0,0,0,20.9,82.929c.852,0,1.429-.353,1.429-.983,0-.59-.459-.721-1.087-.839l-.852-.17c-1.075-.21-1.966-.642-1.966-1.743,0-1.336,1.231-1.9,2.384-1.9a3.15,3.15,0,0,1,2.386.983Z"/><path class="cls-1" d="M28.5,78.984a2.289,2.289,0,0,0-1.729-.786c-.695,0-1.232.3-1.232.852,0,.59.472.747,1.4.944l.72.144c1,.209,1.8.629,1.8,1.717,0,1.271-1.115,1.978-2.609,1.978A3.444,3.444,0,0,1,24.174,82.6l.708-.734a2.559,2.559,0,0,0,2.031,1.062c.852,0,1.428-.353,1.428-.983,0-.59-.459-.721-1.088-.839l-.851-.17c-1.075-.21-1.966-.642-1.966-1.743,0-1.336,1.232-1.9,2.385-1.9a3.148,3.148,0,0,1,2.385.983Z"/><path class="cls-1" d="M38.431,82.392a3.178,3.178,0,0,1-2.752,1.441c-1.782,0-2.975-1.219-2.975-3.3a2.985,2.985,0,0,1,2.962-3.237c1.874,0,2.8,1.415,2.8,3.276v.236H33.805a1.949,1.949,0,0,0,1.979,2.084,2.118,2.118,0,0,0,1.861-1.062Zm-4.587-2.45h3.5c-.092-1.1-.7-1.77-1.677-1.77A1.829,1.829,0,0,0,33.844,79.942Z"/><path class="cls-1" d="M45.231,83.676H44.144v-3.63c0-1.35-.5-1.8-1.415-1.8a1.672,1.672,0,0,0-1.652,1.822v3.6H39.989V77.438h1.088v.93a2.182,2.182,0,0,1,2.005-1.074,1.959,1.959,0,0,1,1.756.8,3.029,3.029,0,0,1,.393,1.678Z"/><path class="cls-1" d="M46.685,80.57c0-2.1,1.193-3.276,2.752-3.276a2.21,2.21,0,0,1,2.005,1.061V74.764H52.53v8.912H51.442v-.918A2.243,2.243,0,0,1,49.4,83.833C47.812,83.833,46.685,82.614,46.685,80.57Zm2.949-2.385c-1.1,0-1.835.838-1.835,2.358,0,1.495.681,2.373,1.808,2.373,1.088,0,1.939-.786,1.939-2.373C51.546,78.972,50.708,78.185,49.634,78.185Z"/><path class="cls-1" d="M57.024,77.294A2.968,2.968,0,0,1,60,80.583a2.986,2.986,0,1,1-5.949,0A2.968,2.968,0,0,1,57.024,77.294Zm0,5.635c1.1,0,1.861-.878,1.861-2.359,0-1.508-.734-2.385-1.861-2.385s-1.86.891-1.86,2.385S55.924,82.929,57.024,82.929Z"/><polygon class="cls-1" points="0.503 68.207 2.821 68.207 2.821 56.755 14.142 56.755 14.142 54.518 2.821 54.518 2.821 46.179 15.372 46.179 15.372 43.942 0.503 43.942 0.503 68.207"/><rect class="cls-1" x="19.762" y="43.942" width="2.32" height="24.265"/><polygon class="cls-1" points="37.457 43.942 34.388 43.942 24.049 55.677 35.473 68.207 38.688 68.207 27.206 55.617 37.457 43.942"/><path class="cls-1" d="M59.576,55.5l-.03-.447H49.323V57.3H57.3c.013.454.024,1.19-.019,1.942-.263,4.5-3.025,7.185-7.387,7.185-4.9,0-8.32-4.377-8.32-10.645,0-6.292,3.171-10.36,8.09-10.365a7.037,7.037,0,0,1,7.346,5.347l.1.337h2.359l-.183-.616c-1.4-4.735-4.729-7.236-9.638-7.236a9.76,9.76,0,0,0-9.3,6.46,16.37,16.37,0,0,0-1.066,6.073c0,7.611,4.357,12.926,10.6,12.926,5.761,0,9.483-3.6,9.714-9.4C59.68,57.13,59.58,55.563,59.576,55.5Z"/><polygon class="cls-2" points="9.027 31.523 14.237 31.523 28.338 23.876 28.338 0 27.227 0 9.027 31.523"/><path class="cls-2" d="M32.232,0H31.12V23.876l14.1,7.647H50.43Z"/></svg>