<svg id="Calque_1" data-name="Calque 1" xmlns="http://www.w3.org/2000/svg" width="235" height="67.567" viewBox="0 0 235 67.567"><defs><style>.cls-1{fill:#fff;}.cls-2{fill:#6a4595;}</style></defs><title>logo-xpendo-finisher</title><path class="cls-1" d="M120.237,46.178c1.43,0,2.564-.624,2.564-1.441s-1.134-1.464-2.564-1.464-2.522.648-2.522,1.464S118.808,46.178,120.237,46.178Z"/><path class="cls-1" d="M151.665,46.178c1.429,0,2.563-.624,2.563-1.441s-1.134-1.464-2.563-1.464-2.52.648-2.52,1.464S150.237,46.178,151.665,46.178Z"/><path class="cls-1" d="M220.153,54.22l-.293.192c-3.152,2.088-6.22,3.745-8.154,3.745-.965,0-1.511-.385-.5-1.369l4.371-4.369c1.511-1.512.8-2.4-.631-3.384l-2.437-1.681c-.631-.456-.631-.96.252-1.44l-2.27-1.417c-2.479,1.273-2.689,2.689-1.135,3.841l.38.288c-1.934,1.561-4.54,3.673-7.4,5.594h0l-.293.192c-3.151,2.088-7.186,3.745-10.252,3.745-2.691,0-4.287-.961-2.27-2.977l.42-.432c2.815.672,8.11.36,11.389-2.881l.63-.624c2.353-2.3.083-4.033-3.489-4.033-3.529,0-6.345,1.057-8.194,2.881l-4.241,4.156-.252.165c-3.153,2.088-6.221,3.745-8.153,3.745-.967,0-1.513-.385-.5-1.369l6.3-6.313c1.892-1.9.085-3.265-2.353-3.265a11.948,11.948,0,0,0-6.093,1.9l6.975-6.937h-4.369L165.4,54.251l-.247.161a27.791,27.791,0,0,1-5.253,2.712c1.388-2.376,1.092-6.025,3.783-9.218L160.4,46.9c-1.807,1.417-5.756,4.681-9.706,7.322h0l-.292.192c-3.153,2.088-6.221,3.745-8.154,3.745-.966,0-1.512-.385-.5-1.369l9.371-9.338h-4.37l-6.843,6.771h0l-.294.192c-3.152,2.088-6.22,3.745-8.153,3.745-.966,0-1.513-.385-.5-1.369l6.3-6.313c1.891-1.9.084-3.265-2.353-3.265a11.764,11.764,0,0,0-6.052,1.872l1.639-1.632h-4.37l-6.854,6.774-.289.188c-3.151,2.088-6.219,3.745-8.152,3.745-.966,0-1.514-.385-.5-1.369l9.37-9.338H115.32l-6.843,6.771h0l-.3.192a24.545,24.545,0,0,1-12.564,3.745c2.983-.889,6.6-2.3,8.825-4.489l7.018-6.938c5.043-4.993-4.413-6.6-10.127-.936L83.26,63.725c-3.361,3.337,3.362,6,8.026,1.321l3.277-3.289a1.984,1.984,0,0,0,.5-2.521,33.273,33.273,0,0,0,10.717-1.95c-.43,1.35.96,2.407,3.737,2.407a14.43,14.43,0,0,0,5.589-1.362l-1.136,1.122h4.413l6.68-6.65c6.682-4.777,9.666-4.153,7.775-2.3L127.17,56.14c-1.849,1.848-.546,3.553,2.983,3.553a16.221,16.221,0,0,0,6.985-2.017c-.067,1.158,1.308,2.017,3.812,2.017,3.614,0,7.774-2.209,11.388-4.609h0c2.478-1.632,4.663-3.384,6.217-4.56-1.723,2.592-.8,7.249-4.957,7.249a2.434,2.434,0,0,1-2.06-.912l-2.731.816s.8,2.017,4.791,2.017c.419,0,.8-.024,1.217-.048.043,0,.085-.024.127-.024a22.639,22.639,0,0,0,6.718-1.663l-1.509,1.5h4.412l6.639-6.6c6.724-4.826,9.708-4.2,7.816-2.353l-5.672,5.641c-1.849,1.848-.546,3.553,2.984,3.553,2.6,0,5.482-1.15,8.241-2.686.206,1.557,2.41,2.686,5.918,2.686,4.958,0,9.874-2.209,13.488-4.609h0c2.1-1.392,3.74-2.64,7.227-5.352l.588.408c.546.408.757.912.253,1.416l-4.623,4.585c-1.849,1.848-.546,3.553,2.984,3.553,3.614,0,7.774-2.209,11.388-4.609A3.767,3.767,0,0,0,220.153,54.22Zm-26.135-3.5c2.522-2.472,6.975-2.065,4.371.528l-.63.624a7.293,7.293,0,0,1-6.556,1.657ZM91.958,61.157,88.3,64.83c-1.513,1.488-3.32,1.056-1.513-.7l4.96-4.849h.377C92.841,59.549,92.841,60.221,91.958,61.157Zm1.555-3.624,11.851-11.619c2.353-2.328,5.378-2.232,3.236.024l-6.808,6.745A18.8,18.8,0,0,1,93.513,57.533Z"/><polygon class="cls-2" points="46.88 0.488 36.407 0.488 24.407 18.016 12.261 0.488 1.279 0.488 18.806 24.78 0.552 49.945 10.515 49.945 23.898 30.961 36.771 49.945 47.39 49.945 29.279 24.126 46.88 0.488"/><path class="cls-2" d="M84.263,4.2C80.262.78,74.516.488,68.407.488H51.9V49.945h8.727V30.671h7.782c6.109,0,11.855-.291,15.856-3.709A15.056,15.056,0,0,0,89.135,15.47,14.693,14.693,0,0,0,84.263,4.2Zm-7.71,17.674c-1.454.654-3.419.945-6.91.945H60.625V8.2h9.018c3.491,0,5.456.29,6.91.945a6.881,6.881,0,0,1,3.564,6.327A7,7,0,0,1,76.553,21.871Z"/><polygon class="cls-2" points="110.657 17.463 124.944 17.463 124.944 12.731 110.657 12.731 110.657 5.3 126.403 5.3 126.403 0.567 105.349 0.567 105.349 30.644 127.509 30.644 127.509 25.912 110.657 25.912 110.657 17.463"/><path class="cls-2" d="M151.044,10.652c0,4.246.089,9.82.089,10.793-.4-.663-1.636-2.654-2.3-3.672L137.376.567h-4.953V30.644h5.263V20.6c0-5.042-.044-9.729-.088-11.145.044,0,.973,1.636,1.9,3.1l11.854,18.09h4.954V.567h-5.264Z"/><path class="cls-2" d="M182.9,2.691c-3.051-2.124-6.1-2.124-10.97-2.124h-8.4V30.644H171.8c5.616,0,9.112,0,12.34-3.14,2.787-2.654,4.379-6.944,4.379-11.987C188.514,9.635,186.169,5.079,182.9,2.691ZM180.154,24.01c-1.858,1.769-4.423,1.814-7.785,1.814h-3.494V5.477h2.92c3.936,0,6.192.222,7.961,1.769,2.034,1.77,3.1,4.777,3.1,8.448C182.852,19.41,181.57,22.551,180.154,24.01Z"/><path class="cls-2" d="M205.5.037c-8.758,0-14.241,6.369-14.241,15.569,0,9.156,5.129,15.57,14.241,15.57,9.156,0,14.243-6.414,14.243-15.57C219.741,6.406,214.256.037,205.5.037Zm0,26.317c-5.352,0-8.448-4.2-8.448-10.748S200.235,4.77,205.5,4.77s8.449,4.29,8.449,10.836S210.85,26.354,205.5,26.354Z"/><path class="cls-2" d="M228.5,0a6.072,6.072,0,0,0-6.17,6.189,6.166,6.166,0,1,0,12.331,0A6.067,6.067,0,0,0,228.5,0Zm0,11.365a5.328,5.328,0,0,1-5.09-5.176,5.089,5.089,0,1,1,10.176,0A5.324,5.324,0,0,1,228.5,11.365Z"/><path class="cls-2" d="M230.905,4.852a1.585,1.585,0,0,0-1-1.574,3.446,3.446,0,0,0-1.252-.181h-2.3V9.211h.787V6.594h1.281L230.1,9.211h.992l-1.727-2.654A1.677,1.677,0,0,0,230.905,4.852Zm-3.763,1.039V3.8h1.369a2.62,2.62,0,0,1,1.039.144.931.931,0,0,1,.54.9.918.918,0,0,1-.522.9,2.524,2.524,0,0,1-1.052.149Z"/></svg>