<svg id="Calque_1" data-name="Calque 1" xmlns="http://www.w3.org/2000/svg" width="230" height="205" viewBox="0 0 230 205"><defs><style>.cls-1{fill:#4b246c;}.cls-2{fill:#fff;}</style></defs><title>logo-fkg</title><polygon class="cls-1" points="0 0 0 174.136 115.002 204.999 230 174.136 230 0 0 0"/><path class="cls-2" d="M80.2,137.114a3.1,3.1,0,0,0-2.346-1.064c-.94,0-1.67.408-1.67,1.153,0,.8.641,1.014,1.9,1.278l.975.195c1.352.287,2.435.854,2.435,2.329,0,1.721-1.51,2.681-3.537,2.681a4.672,4.672,0,0,1-3.624-1.67l.962-1a3.466,3.466,0,0,0,2.751,1.441c1.157,0,1.938-.481,1.938-1.332,0-.8-.622-.979-1.476-1.138l-1.154-.229c-1.456-.284-2.664-.874-2.664-2.365,0-1.81,1.67-2.575,3.235-2.575a4.265,4.265,0,0,1,3.231,1.332Z"/><path class="cls-2" d="M90.233,139.653c.233.73.427,1.405.532,1.813h.019c.106-.392.319-1.173.549-1.864l1.475-4.583h1.53l-2.932,8.455H90.074L88.6,138.659c-.229-.711-.408-1.368-.462-1.581H88.12c-.054.213-.232.87-.462,1.6l-1.526,4.8H84.745l-2.9-8.455h1.565l1.546,4.634c.229.676.443,1.421.548,1.813h.019c.105-.408.3-1.118.532-1.829l1.511-4.618h1.278Z"/><path class="cls-2" d="M95.81,143.472h1.475v-8.455H95.81Zm0-10.2h1.475V131.4H95.81Z"/><path class="cls-2" d="M104.815,137.114a3.1,3.1,0,0,0-2.346-1.064c-.94,0-1.669.408-1.669,1.153,0,.8.64,1.014,1.9,1.278l.975.195c1.352.287,2.435.854,2.435,2.329,0,1.721-1.51,2.681-3.534,2.681a4.674,4.674,0,0,1-3.627-1.67l.963-1a3.463,3.463,0,0,0,2.75,1.441c1.157,0,1.938-.481,1.938-1.332,0-.8-.622-.979-1.473-1.138l-1.157-.229c-1.456-.284-2.664-.874-2.664-2.365,0-1.81,1.67-2.575,3.232-2.575a4.267,4.267,0,0,1,3.234,1.332Z"/><path class="cls-2" d="M112.967,137.114a3.1,3.1,0,0,0-2.345-1.064c-.94,0-1.67.408-1.67,1.153,0,.8.64,1.014,1.9,1.278l.976.195c1.351.287,2.434.854,2.434,2.329,0,1.721-1.51,2.681-3.534,2.681a4.663,4.663,0,0,1-3.623-1.67l.959-1a3.464,3.464,0,0,0,2.753,1.441c1.154,0,1.935-.481,1.935-1.332,0-.8-.622-.979-1.476-1.138l-1.153-.229c-1.457-.284-2.665-.874-2.665-2.365,0-1.81,1.67-2.575,3.235-2.575a4.267,4.267,0,0,1,3.232,1.332Z"/><path class="cls-2" d="M120.213,138.413h4.742c-.124-1.5-.94-2.4-2.272-2.4a2.48,2.48,0,0,0-2.47,2.4m6.218,3.32a4.3,4.3,0,0,1-3.732,1.954c-2.412,0-4.031-1.651-4.031-4.478,0-2.591,1.689-4.385,4.015-4.385,2.54,0,3.8,1.919,3.8,4.439v.319h-6.326a2.646,2.646,0,0,0,2.683,2.827,2.873,2.873,0,0,0,2.525-1.441Z"/><path class="cls-2" d="M135.649,143.473h-1.476v-4.92c0-1.83-.672-2.435-1.915-2.435a2.267,2.267,0,0,0-2.241,2.47v4.885h-1.475v-8.455h1.475v1.262a2.955,2.955,0,0,1,2.719-1.456,2.662,2.662,0,0,1,2.38,1.08,4.123,4.123,0,0,1,.533,2.276Z"/><path class="cls-2" d="M141.616,136.032c-1.492,0-2.486,1.134-2.486,3.2,0,2.024.921,3.216,2.451,3.216,1.475,0,2.629-1.068,2.629-3.216,0-2.132-1.138-3.2-2.594-3.2m-4,3.231c0-2.843,1.616-4.439,3.729-4.439a3,3,0,0,1,2.719,1.437V131.4h1.475v12.078h-1.475V142.23a3.046,3.046,0,0,1-2.77,1.457c-2.151,0-3.678-1.651-3.678-4.424"/><path class="cls-2" d="M151.634,142.459c1.491,0,2.521-1.188,2.521-3.2,0-2.043-1-3.232-2.521-3.232s-2.521,1.208-2.521,3.232,1.029,3.2,2.521,3.2m0-7.636c2.38,0,4.031,1.74,4.031,4.459,0,2.7-1.615,4.4-4.031,4.4s-4.032-1.705-4.032-4.4c0-2.719,1.651-4.459,4.032-4.459"/><polygon class="cls-2" points="75.02 122.507 78.162 122.507 78.162 106.983 93.507 106.983 93.507 103.949 78.162 103.949 78.162 92.645 95.174 92.645 95.174 89.614 75.02 89.614 75.02 122.507"/><rect class="cls-2" x="101.126" y="89.613" width="3.142" height="32.893"/><polygon class="cls-2" points="125.111 89.614 120.949 89.614 106.936 105.52 122.421 122.506 126.778 122.506 111.216 105.44 125.111 89.614"/><path class="cls-2" d="M155.093,105.277l-.041-.605H141.2v3.053h10.813c.019.615.035,1.612-.026,2.629-.353,6.1-4.1,9.742-10.013,9.742-6.638,0-11.275-5.934-11.275-14.43,0-8.528,4.3-14.042,10.966-14.048,5.1,0,8.455,2.435,9.956,7.247l.143.456h3.2l-.249-.835c-1.89-6.419-6.409-9.81-13.063-9.81a13.231,13.231,0,0,0-12.611,8.758,22.178,22.178,0,0,0-1.447,8.232c0,10.316,5.909,17.522,14.364,17.522,7.808,0,12.853-4.883,13.168-12.745.115-2.951-.019-5.077-.025-5.166"/><polygon class="cls-2" points="86.574 72.78 93.637 72.78 112.749 62.416 112.749 30.049 111.244 30.049 86.574 72.78"/><polygon class="cls-2" points="118.028 30.05 116.52 30.05 116.52 62.414 135.636 72.781 142.695 72.781 118.028 30.05"/></svg>